<svg xmlns="http://www.w3.org/2000/svg" width="512" height="512" viewBox="0 0 512 512" version="1.1">
	<path d="M 12.500 1.902 C 7.248 4.341, 4.190 7.370, 1.908 12.395 C 0.106 16.364, 0.044 24.448, 0.044 256 C 0.044 485.521, 0.120 495.667, 1.865 499.509 C 4.183 504.611, 9.865 509.617, 14.866 510.964 C 17.543 511.685, 93.778 511.932, 258.793 511.756 L 498.828 511.500 503.145 508.466 C 505.963 506.485, 508.419 503.532, 510.215 499.966 L 512.966 494.500 512.968 254.500 C 512.969 122.500, 512.590 15.099, 512.126 15.831 C 511.527 16.775, 511.108 16.292, 510.683 14.163 C 509.871 10.107, 504.402 4.088, 499.509 1.865 C 495.667 0.120, 485.521 0.044, 256 0.044 C 24.715 0.044, 16.363 0.108, 12.500 1.902 M 0.492 256 C 0.492 388.275, 0.608 442.387, 0.750 376.250 C 0.892 310.112, 0.892 201.887, 0.750 135.750 C 0.608 69.612, 0.492 123.725, 0.492 256 M 247.746 59.023 C 237.220 61.680, 228.023 69.384, 223.301 79.500 C 220.923 84.593, 220.500 86.785, 220.500 94 C 220.500 103.630, 222.111 108.659, 227.584 116.115 L 231 120.768 231 157.384 C 231 177.523, 230.639 194, 230.198 194 C 229.757 194, 220.663 185.113, 209.988 174.250 C 175.998 139.661, 178.171 142.182, 177.007 135.996 C 175.451 127.735, 171.565 120.717, 165.452 115.131 C 158.386 108.672, 151.377 106, 141.500 106 C 130.701 106, 124.075 108.750, 116.412 116.412 C 108.750 124.075, 106 130.701, 106 141.500 C 106 151.644, 108.669 158.449, 115.574 165.907 C 121.551 172.362, 127.644 175.559, 136.820 177.052 L 142.455 177.969 168.228 203.727 C 182.402 217.894, 194 229.826, 194 230.243 C 194 230.659, 177.576 231, 157.502 231 L 121.005 231 116.252 227.589 C 108.584 222.085, 103.602 220.499, 94 220.505 C 86.756 220.509, 84.579 220.934, 79.266 223.384 C 68.520 228.339, 60.148 239.552, 58.459 251.250 L 57.773 256 255.974 256 L 454.176 256 453.468 251.750 C 451.336 238.939, 444.318 229.251, 433.206 223.781 C 427.255 220.851, 425.630 220.500, 418.021 220.500 C 408.368 220.500, 403.346 222.107, 395.885 227.584 L 391.232 231 354.616 231 C 334.477 231, 318 230.659, 318 230.243 C 318 229.826, 329.598 217.894, 343.772 203.727 L 369.545 177.969 375.252 177.040 C 378.391 176.529, 382.979 175.218, 385.447 174.126 C 391.770 171.330, 399.490 163.739, 402.738 157.125 C 405.195 152.121, 405.500 150.396, 405.500 141.500 C 405.500 132.577, 405.199 130.887, 402.706 125.810 C 399.109 118.485, 390.782 110.811, 383.459 108.071 C 375.871 105.232, 365.034 105.267, 357.313 108.156 C 346.232 112.302, 336.532 124.285, 335.319 135.328 L 334.751 140.500 307.880 167.500 L 281.010 194.500 281.005 157.391 L 281 120.281 284.518 115.891 C 289.389 109.811, 292.407 99.665, 291.757 91.557 C 290.325 73.722, 275.980 59.545, 258.290 58.483 C 254.556 58.259, 249.811 58.502, 247.746 59.023 M 121.191 275.025 C 100.870 280.348, 85.206 296.145, 79.978 316.585 C 73.331 342.577, 85.297 370.091, 108.500 382.162 C 117.481 386.834, 121.334 387.902, 133.190 389.004 C 151.888 390.743, 161.956 400.016, 161.956 415.500 C 161.956 438.193, 135.453 450.219, 118.707 435.124 C 114.525 431.355, 110.027 423.144, 110.010 419.250 C 110 417.010, 109.928 417, 93.862 417 L 77.725 417 78.393 422.688 C 81.235 446.864, 100.198 467.335, 124.529 472.489 C 133.305 474.348, 138.659 474.350, 147.500 472.501 C 168.812 468.041, 186.349 451.718, 191.890 431.182 C 197.396 410.777, 191.834 389.596, 177.120 374.938 C 165.942 363.803, 156.848 359.723, 138.482 357.601 C 129.581 356.573, 126.213 355.729, 122.624 353.626 C 114.669 348.964, 110.128 341.020, 110.044 331.616 C 109.979 324.384, 111.868 319.363, 116.659 314.034 C 127.055 302.472, 143.582 301.940, 154.495 312.816 C 158.995 317.301, 160.738 320.510, 161.599 325.895 L 162.256 330 178.128 330 L 194 330 194 326.710 C 194 321.319, 191.225 311.984, 187.279 304.101 C 175.515 280.602, 147.295 268.186, 121.191 275.025 M 198 273.762 C 198 274.180, 207.225 319.002, 218.500 373.366 C 229.775 427.730, 239 472.612, 239 473.105 C 239 473.597, 246.425 474, 255.500 474 C 264.575 474, 272 473.814, 272 473.587 C 272 473.360, 281.225 428.579, 292.500 374.073 C 303.775 319.567, 313 274.528, 313 273.986 C 313 273.380, 306.934 273.002, 297.250 273.005 L 281.500 273.009 270.061 328.755 C 256.909 392.852, 257.341 391, 255.533 391 C 253.897 391, 254.340 392.921, 240.366 325.250 L 229.576 273 213.788 273 C 205.105 273, 198 273.343, 198 273.762 M 360.191 275.025 C 339.870 280.348, 324.206 296.145, 318.978 316.585 C 317.142 323.766, 317 327.771, 317 372.476 C 317 402.756, 317.402 422.835, 318.084 426.566 C 322.165 448.900, 340.967 467.754, 364 472.609 C 391.669 478.441, 419.785 462.241, 430.257 434.432 C 432.391 428.765, 432.505 426.904, 432.803 392.750 L 433.115 357 405.058 357 L 377 357 377 373 L 377 389 389 389 L 401 389 401 404.634 C 401 413.725, 400.508 421.911, 399.824 424.193 C 398.330 429.179, 391.939 436.481, 386.751 439.127 C 374.026 445.619, 357.519 439.753, 351.374 426.556 L 349.020 421.500 349.032 373.500 C 349.043 327.383, 349.124 325.323, 351.079 321 C 359.751 301.819, 385.480 299.422, 396.943 316.728 C 398.574 319.190, 400.205 323.183, 400.568 325.602 L 401.227 330 417.114 330 L 433 330 433 327.049 C 433 321.322, 430.775 313.406, 426.862 305.209 C 415.246 280.880, 386.874 268.035, 360.191 275.025" stroke="none" fill="black" fill-rule="evenodd"/>
</svg>